<svg width="41" height="14" viewBox="0 0 41 14" fill="none" xmlns="http://www.w3.org/2000/svg">
<path d="M17.3656 9.54504H1.49341C1.1427 9.54504 0.858521 9.21407 0.858521 8.80582V1.41346C0.858521 1.0052 1.1427 0.674139 1.49341 0.674139H24.9845C25.3352 0.674139 25.6194 1.0052 25.6194 1.41346V9.54504H21.1754" stroke="#EDEDED" stroke-width="1.2" stroke-miterlimit="10" stroke-linecap="round" stroke-linejoin="round"/>
<path d="M38.3162 11.0231H39.5859C39.9366 11.0231 40.2208 10.6921 40.2208 10.2838V7.32685C40.2208 6.91859 39.9366 6.58762 39.5859 6.58762H34.5068C34.1561 6.58762 33.8719 6.25665 33.8719 5.84839V2.89149C33.8719 1.66663 33.0191 0.673713 31.9672 0.673713H28.7927C28.4421 0.673713 28.1578 1.00469 28.1578 1.41303V8.06616" stroke="#EDEDED" stroke-width="1.2" stroke-miterlimit="10" stroke-linecap="round" stroke-linejoin="round"/>
<path d="M31.3315 3.63083V8.06628" stroke="#EDEDED" stroke-width="1.2" stroke-miterlimit="10" stroke-linecap="round" stroke-linejoin="round"/>
<path d="M28.1578 3.63074H34.9918C35.4728 3.63074 35.9124 3.94714 36.1276 4.44798L37.0464 6.58765" stroke="#EDEDED" stroke-width="1.2" stroke-miterlimit="10" stroke-linecap="round" stroke-linejoin="round"/>
<path d="M38.3148 11.0233C38.3148 11.8398 37.7463 12.5017 37.0451 12.5017C36.3437 12.5017 35.7753 11.8398 35.7753 11.0233C35.7753 10.2067 36.3437 9.5448 37.0451 9.5448C37.7463 9.5448 38.3148 10.2067 38.3148 11.0233Z" stroke="#EDEDED" stroke-width="1.2" stroke-miterlimit="10" stroke-linecap="round" stroke-linejoin="round"/>
<path d="M26.8883 11.0233C26.8883 11.8398 26.3198 12.5017 25.6185 12.5017C24.9172 12.5017 24.3487 11.8398 24.3487 11.0233C24.3487 10.2067 24.9172 9.5448 25.6185 9.5448C26.3198 9.5448 26.8883 10.2067 26.8883 11.0233Z" stroke="#EDEDED" stroke-width="1.2" stroke-miterlimit="10" stroke-linecap="round" stroke-linejoin="round"/>
<path d="M22.4445 11.0233C22.4445 11.8398 21.876 12.5017 21.1748 12.5017C20.4734 12.5017 19.905 11.8398 19.905 11.0233C19.905 10.2067 20.4734 9.5448 21.1748 9.5448C21.876 9.5448 22.4445 10.2067 22.4445 11.0233Z" stroke="#EDEDED" stroke-width="1.2" stroke-miterlimit="10" stroke-linecap="round" stroke-linejoin="round"/>
<path d="M10.3808 11.0233C10.3808 11.8398 9.81227 12.5017 9.11102 12.5017C8.40976 12.5017 7.84125 11.8398 7.84125 11.0233C7.84125 10.2067 8.40976 9.5448 9.11102 9.5448C9.81227 9.5448 10.3808 10.2067 10.3808 11.0233Z" stroke="#EDEDED" stroke-width="1.2" stroke-miterlimit="10" stroke-linecap="round" stroke-linejoin="round"/>
<path d="M5.93461 11.0233C5.93461 11.8398 5.36609 12.5017 4.66484 12.5017C3.9635 12.5017 3.39507 11.8398 3.39507 11.0233C3.39507 10.2067 3.9635 9.5448 4.66484 9.5448C5.36609 9.5448 5.93461 10.2067 5.93461 11.0233Z" stroke="#EDEDED" stroke-width="1.2" stroke-miterlimit="10" stroke-linecap="round" stroke-linejoin="round"/>
<path d="M33.2355 11.0231H26.8864" stroke="#EDEDED" stroke-width="1.2" stroke-miterlimit="10" stroke-linecap="round" stroke-linejoin="round"/>
<path d="M25.6188 8.06616H31.333V11.0231" stroke="#EDEDED" stroke-width="1.2" stroke-miterlimit="10" stroke-linecap="round" stroke-linejoin="round"/>
</svg>
