<svg width="19" height="19" viewBox="0 0 19 19" fill="none" xmlns="http://www.w3.org/2000/svg">
<path d="M18.7478 17.6506L14.2711 13.1738C15.491 11.6818 16.0909 9.77787 15.9465 7.85598C15.8021 5.93408 14.9245 4.1412 13.4953 2.8482C12.066 1.55519 10.1945 0.860975 8.26781 0.909149C6.3411 0.957323 4.50661 1.7442 3.14379 3.10702C1.78097 4.46983 0.994096 6.30432 0.945922 8.23104C0.897749 10.1578 1.59196 12.0293 2.88497 13.4585C4.17798 14.8877 5.97085 15.7653 7.89275 15.9097C9.81465 16.0541 11.7185 15.4543 13.2106 14.2343L17.6873 18.7111C17.8288 18.8477 18.0182 18.9233 18.2149 18.9216C18.4115 18.9199 18.5996 18.841 18.7387 18.7019C18.8778 18.5629 18.9566 18.3748 18.9583 18.1781C18.96 17.9815 18.8845 17.792 18.7478 17.6506ZM8.46758 14.4308C7.28089 14.4308 6.12085 14.0789 5.13416 13.4196C4.14746 12.7603 3.37843 11.8233 2.9243 10.7269C2.47018 9.63055 2.35136 8.42415 2.58287 7.26026C2.81438 6.09638 3.38582 5.02728 4.22494 4.18817C5.06405 3.34905 6.13315 2.77761 7.29704 2.54609C8.46092 2.31458 9.66732 2.4334 10.7637 2.88753C11.86 3.34165 12.7971 4.11069 13.4564 5.09738C14.1157 6.08408 14.4676 7.24412 14.4676 8.43081C14.4658 10.0216 13.8331 11.5466 12.7082 12.6715C11.5834 13.7963 10.0583 14.429 8.46758 14.4308Z" fill="white"/>
</svg>
