<svg width="20" height="20" viewBox="0 0 20 20" fill="none" xmlns="http://www.w3.org/2000/svg">
<path d="M10.125 11.25C9.50694 11.25 8.90275 11.0667 8.38884 10.7233C7.87494 10.38 7.4744 9.89191 7.23788 9.32089C7.00135 8.74987 6.93947 8.12154 7.06005 7.51534C7.18063 6.90915 7.47825 6.35233 7.91529 5.91529C8.35233 5.47825 8.90915 5.18063 9.51534 5.06005C10.1215 4.93947 10.7499 5.00135 11.3209 5.23788C11.8919 5.4744 12.38 5.87494 12.7233 6.38884C13.0667 6.90275 13.25 7.50694 13.25 8.125C13.249 8.9535 12.9195 9.74778 12.3336 10.3336C11.7478 10.9195 10.9535 11.249 10.125 11.25ZM10.125 6.25C9.75416 6.25 9.39165 6.35997 9.08331 6.566C8.77497 6.77202 8.53464 7.06486 8.39273 7.40747C8.25081 7.75008 8.21368 8.12708 8.28603 8.4908C8.35838 8.85451 8.53695 9.1886 8.79918 9.45083C9.0614 9.71305 9.39549 9.89163 9.75921 9.96397C10.1229 10.0363 10.4999 9.99919 10.8425 9.85728C11.1851 9.71536 11.478 9.47504 11.684 9.1667C11.89 8.85835 12 8.49584 12 8.125C11.9995 7.62787 11.8018 7.15125 11.4503 6.79972C11.0988 6.4482 10.6221 6.2505 10.125 6.25Z" fill="#FFEE00"/>
<path d="M10.075 18.75L4.8025 12.5319C4.72924 12.4385 4.65674 12.3445 4.585 12.25C3.68482 11.0634 3.19833 9.61443 3.2 8.125C3.2 6.30164 3.92433 4.55295 5.21364 3.26364C6.50295 1.97433 8.25164 1.25 10.075 1.25C11.8984 1.25 13.647 1.97433 14.9364 3.26364C16.2257 4.55295 16.95 6.30164 16.95 8.125C16.9514 9.61372 16.4652 11.0619 15.5656 12.2481L15.565 12.25C15.565 12.25 15.3775 12.4963 15.3494 12.5294L10.075 18.75ZM5.58313 11.4969C5.58313 11.4969 5.72875 11.6894 5.76188 11.7306L10.075 16.8175L14.3938 11.7237C14.4213 11.6894 14.5675 11.4956 14.5681 11.495C15.3039 10.5257 15.7015 9.3419 15.7 8.125C15.7 6.63316 15.1074 5.20242 14.0525 4.14752C12.9976 3.09263 11.5668 2.5 10.075 2.5C8.58316 2.5 7.15242 3.09263 6.09753 4.14752C5.04263 5.20242 4.45 6.63316 4.45 8.125C4.44846 9.34269 4.84653 10.5272 5.58313 11.4969Z" fill="#EDEDED"/>
</svg>
