<svg width="28" height="16" viewBox="0 0 28 16" fill="none" xmlns="http://www.w3.org/2000/svg">
<path fill-rule="evenodd" clip-rule="evenodd" d="M5.86914 2.34131C6.14528 2.34131 6.36914 2.56517 6.36914 2.84131V8.19122C6.36914 8.46737 6.14528 8.69122 5.86914 8.69122C5.593 8.69122 5.36914 8.46737 5.36914 8.19122V2.84131C5.36914 2.56517 5.593 2.34131 5.86914 2.34131Z" fill="#EDEDED"/>
<path fill-rule="evenodd" clip-rule="evenodd" d="M9.80292 2.34131C10.0791 2.34131 10.3029 2.56517 10.3029 2.84131V8.19122C10.3029 8.46737 10.0791 8.69122 9.80292 8.69122C9.52678 8.69122 9.30292 8.46737 9.30292 8.19122V2.84131C9.30292 2.56517 9.52678 2.34131 9.80292 2.34131Z" fill="#EDEDED"/>
<path fill-rule="evenodd" clip-rule="evenodd" d="M13.7367 2.34131C14.0128 2.34131 14.2367 2.56517 14.2367 2.84131V8.19122C14.2367 8.46737 14.0128 8.69122 13.7367 8.69122C13.4606 8.69122 13.2367 8.46737 13.2367 8.19122V2.84131C13.2367 2.56517 13.4606 2.34131 13.7367 2.34131Z" fill="#EDEDED"/>
<path fill-rule="evenodd" clip-rule="evenodd" d="M17.6705 2.34131C17.9466 2.34131 18.1705 2.56517 18.1705 2.84131V8.19122C18.1705 8.46737 17.9466 8.69122 17.6705 8.69122C17.3943 8.69122 17.1705 8.46737 17.1705 8.19122V2.84131C17.1705 2.56517 17.3943 2.34131 17.6705 2.34131Z" fill="#EDEDED"/>
<path fill-rule="evenodd" clip-rule="evenodd" d="M21.6042 2.34131C21.8804 2.34131 22.1042 2.56517 22.1042 2.84131V8.19122C22.1042 8.46737 21.8804 8.69122 21.6042 8.69122C21.3281 8.69122 21.1042 8.46737 21.1042 8.19122V2.84131C21.1042 2.56517 21.3281 2.34131 21.6042 2.34131Z" fill="#EDEDED"/>
<path fill-rule="evenodd" clip-rule="evenodd" d="M26.5215 12.3495L0.991274 12.3497C0.715132 12.3497 0.491273 12.1258 0.491272 11.8497C0.491271 11.5735 0.715127 11.3497 0.99127 11.3497L26.5215 11.3495C26.7976 11.3495 27.0215 11.5734 27.0215 11.8495C27.0215 12.1257 26.7976 12.3495 26.5215 12.3495Z" fill="#EDEDED"/>
<path fill-rule="evenodd" clip-rule="evenodd" d="M24.0579 1.6886H3.6779V9.04968H24.0579V1.6886ZM3.6779 0.688599C3.12562 0.688599 2.6779 1.13631 2.6779 1.6886V9.04968C2.6779 9.60197 3.12562 10.0497 3.6779 10.0497H24.0579C24.6102 10.0497 25.0579 9.60197 25.0579 9.04968V1.6886C25.0579 1.13631 24.6102 0.688599 24.0579 0.688599H3.6779Z" fill="#EDEDED"/>
<path fill-rule="evenodd" clip-rule="evenodd" d="M4.45299 14.3113C4.85663 14.3113 5.18384 13.9841 5.18384 13.5805C5.18384 13.1768 4.85663 12.8496 4.45299 12.8496C4.04935 12.8496 3.72214 13.1768 3.72214 13.5805C3.72214 13.9841 4.04935 14.3113 4.45299 14.3113ZM4.45299 15.3113C5.40891 15.3113 6.18384 14.5364 6.18384 13.5805C6.18384 12.6245 5.40891 11.8496 4.45299 11.8496C3.49707 11.8496 2.72214 12.6245 2.72214 13.5805C2.72214 14.5364 3.49707 15.3113 4.45299 15.3113Z" fill="#EDEDED"/>
<path fill-rule="evenodd" clip-rule="evenodd" d="M7.59999 14.3113C8.00363 14.3113 8.33084 13.9841 8.33084 13.5805C8.33084 13.1768 8.00363 12.8496 7.59999 12.8496C7.19635 12.8496 6.86914 13.1768 6.86914 13.5805C6.86914 13.9841 7.19635 14.3113 7.59999 14.3113ZM7.59999 15.3113C8.55591 15.3113 9.33084 14.5364 9.33084 13.5805C9.33084 12.6245 8.55591 11.8496 7.59999 11.8496C6.64407 11.8496 5.86914 12.6245 5.86914 13.5805C5.86914 14.5364 6.64407 15.3113 7.59999 15.3113Z" fill="#EDEDED"/>
<path fill-rule="evenodd" clip-rule="evenodd" d="M20.5421 14.3113C20.9457 14.3113 21.2729 13.9841 21.2729 13.5805C21.2729 13.1768 20.9457 12.8496 20.5421 12.8496C20.1385 12.8496 19.8112 13.1768 19.8112 13.5805C19.8112 13.9841 20.1385 14.3113 20.5421 14.3113ZM20.5421 15.3113C21.498 15.3113 22.2729 14.5364 22.2729 13.5805C22.2729 12.6245 21.498 11.8496 20.5421 11.8496C19.5862 11.8496 18.8112 12.6245 18.8112 13.5805C18.8112 14.5364 19.5862 15.3113 20.5421 15.3113Z" fill="#EDEDED"/>
<path fill-rule="evenodd" clip-rule="evenodd" d="M23.3351 14.3113C23.7387 14.3113 24.0659 13.9841 24.0659 13.5805C24.0659 13.1768 23.7387 12.8496 23.3351 12.8496C22.9315 12.8496 22.6042 13.1768 22.6042 13.5805C22.6042 13.9841 22.9315 14.3113 23.3351 14.3113ZM23.3351 15.3113C24.291 15.3113 25.0659 14.5364 25.0659 13.5805C25.0659 12.6245 24.291 11.8496 23.3351 11.8496C22.3792 11.8496 21.6042 12.6245 21.6042 13.5805C21.6042 14.5364 22.3792 15.3113 23.3351 15.3113Z" fill="#EDEDED"/>
</svg>
