<svg width="28" height="19" viewBox="0 0 28 19" fill="none" xmlns="http://www.w3.org/2000/svg">
<path d="M7.19312 16.7326C7.19312 17.6203 6.4676 18.3398 5.57244 18.3398C4.67728 18.3398 3.95175 17.6203 3.95175 16.7326C3.95175 15.8449 4.67728 15.1253 5.57244 15.1253C6.4676 15.1253 7.19312 15.8449 7.19312 16.7326Z" stroke="white" stroke-miterlimit="10" stroke-linecap="round" stroke-linejoin="round"/>
<path d="M10.4345 16.7326C10.4345 17.6203 9.70897 18.3398 8.81382 18.3398C7.91866 18.3398 7.19313 17.6203 7.19313 16.7326C7.19313 15.8449 7.91866 15.1253 8.81382 15.1253C9.70897 15.1253 10.4345 15.8449 10.4345 16.7326Z" stroke="white" stroke-miterlimit="10" stroke-linecap="round" stroke-linejoin="round"/>
<path d="M22.1034 16.7326C22.1034 17.6203 21.3779 18.3398 20.4827 18.3398C19.5876 18.3398 18.8621 17.6203 18.8621 16.7326C18.8621 15.8449 19.5876 15.1253 20.4827 15.1253C21.3779 15.1253 22.1034 15.8449 22.1034 16.7326Z" stroke="white" stroke-miterlimit="10" stroke-linecap="round" stroke-linejoin="round"/>
<path d="M13.8379 16.7325V1.73152C13.8379 1.13952 14.3214 0.660021 14.9184 0.660021H17.2414C19.9269 0.660021 22.1034 2.81856 22.1034 5.48178V6.73803C22.1034 8.7072 23.6998 10.3035 25.6689 10.3035V10.3035C26.5641 10.3035 27.2896 11.023 27.2896 11.9108V15.661C27.2896 16.253 26.8061 16.7325 26.2092 16.7325H22.1034" stroke="white" stroke-miterlimit="10" stroke-linecap="round" stroke-linejoin="round"/>
<path d="M3.95176 16.7325H0.710388" stroke="#FFFF00" stroke-miterlimit="10" stroke-linecap="round" stroke-linejoin="round"/>
<path d="M22.1034 10.3035H19.6523C18.3208 10.3035 17.2414 9.22408 17.2414 7.89259V7.89259C17.2414 6.5611 18.3208 5.48171 19.6523 5.48171H22.1034" stroke="white" stroke-miterlimit="10" stroke-linecap="round" stroke-linejoin="round"/>
<path d="M21.3217 9.49988H20.0913C19.4229 9.49988 18.8811 8.95807 18.8811 8.28971C18.8811 7.62135 19.4229 7.07954 20.0913 7.07954H21.3217" fill="#FFFF00"/>
<path d="M10.4345 5.48181H13.8379" stroke="white" stroke-miterlimit="10" stroke-linecap="round" stroke-linejoin="round"/>
<path d="M13.8379 5.48181H17.2414" stroke="white" stroke-miterlimit="10" stroke-linecap="round" stroke-linejoin="round"/>
<path d="M25.6689 13.5181H27.2896" stroke="#FFFF00" stroke-miterlimit="10" stroke-linecap="round" stroke-linejoin="round"/>
<path d="M10.9747 10.8392C10.9747 11.1351 10.7329 11.375 10.4345 11.375C10.1361 11.375 9.89427 11.1351 9.89427 10.8392C9.89427 10.5434 10.1361 10.3035 10.4345 10.3035C10.7329 10.3035 10.9747 10.5434 10.9747 10.8392Z" fill="#FFFF00"/>
<path d="M8.81381 0.66008V0.66008C9.85105 1.68872 10.4345 3.08904 10.4345 4.54985V8.42847" stroke="white" stroke-miterlimit="10" stroke-linecap="round" stroke-linejoin="round"/>
<path d="M10.4345 13.2502V13.2502C10.4345 15.1734 11.9936 16.7325 13.9169 16.7325H18.8621" stroke="white" stroke-miterlimit="10" stroke-linecap="round" stroke-linejoin="round"/>
</svg>
